HIERARCHY
ROOT Hips
{
  OFFSET 263.056 91.6644 -274.608
  CHANNELS 6 Xposition Yposition Zposition Zrotation Xrotation Yrotation
  JOINT LeftUpLeg
  {
    OFFSET 8.64259 1.95398 -2.38835
    CHANNELS 3 Zrotation Xrotation Yrotation
    JOINT LeftLeg
    {
      OFFSET 43.7702 0 0
      CHANNELS 3 Zrotation Xrotation Yrotation
      JOINT LeftFoot
      {
        OFFSET 40.6238 0 0
        CHANNELS 3 Zrotation Xrotation Yrotation
        JOINT LeftToeBase
        {
          OFFSET 12.7242 0 0
          CHANNELS 3 Zrotation Xrotation Yrotation
          End Site
          {
            OFFSET 0 0 0
          }
        }
      }
    }
  }
  JOINT RightUpLeg
  {
    OFFSET -8.2249 1.95398 -2.59336
    CHANNELS 3 Zrotation Xrotation Yrotation
    JOINT RightLeg
    {
      OFFSET 43.5653 0 0
      CHANNELS 3 Zrotation Xrotation Yrotation
      JOINT RightFoot
      {
        OFFSET 40.6238 0 0
        CHANNELS 3 Zrotation Xrotation Yrotation
        JOINT RightToeBase
        {
          OFFSET 12.7242 0 0
          CHANNELS 3 Zrotation Xrotation Yrotation
          End Site
          {
            OFFSET 0 0 0
          }
        }
      }
    }
  }
  JOINT Spine
  {
    OFFSET 0.165834 0.87714 6.61349
    CHANNELS 3 Zrotation Xrotation Yrotation
    JOINT Spine1
    {
      OFFSET 7.38963 1.71661e-005 0
      CHANNELS 3 Zrotation Xrotation Yrotation
      JOINT Spine2
      {
        OFFSET 11.9445 1.14441e-005 0
        CHANNELS 3 Zrotation Xrotation Yrotation
        JOINT Spine3
        {
          OFFSET 14.7254 4.19617e-005 0
          CHANNELS 3 Zrotation Xrotation Yrotation
          JOINT Spine4
          {
            OFFSET 10.9679 0 0
            CHANNELS 3 Zrotation Xrotation Yrotation
            JOINT RightShoulder
            {
              OFFSET 2.46616 -1.6653 3.69651
              CHANNELS 3 Zrotation Xrotation Yrotation
              JOINT RightArm
              {
                OFFSET 13.0012 0 0
                CHANNELS 3 Zrotation Xrotation Yrotation
                JOINT RightForeArm
                {
                  OFFSET 28.7848 1.52588e-005 0
                  CHANNELS 3 Zrotation Xrotation Yrotation
                  JOINT RightHand
                  {
                    OFFSET 26.5688 1.52588e-005 0
                    CHANNELS 3 Zrotation Xrotation Yrotation
                    End Site
                    {
                      OFFSET 0 0 0
                    }
                  }
                }
              }
            }
            JOINT LeftShoulder
            {
              OFFSET 2.38034 -1.29275 -3.7523
              CHANNELS 3 Zrotation Xrotation Yrotation
              JOINT LeftArm
              {
                OFFSET 16.3182 6.10352e-005 0
                CHANNELS 3 Zrotation Xrotation Yrotation
                JOINT LeftForeArm
                {
                  OFFSET 27.0901 0 0
                  CHANNELS 3 Zrotation Xrotation Yrotation
                  JOINT LeftHand
                  {
                    OFFSET 24.5451 1.52588e-005 0
                    CHANNELS 3 Zrotation Xrotation Yrotation
                    End Site
                    {
                      OFFSET 0 0 0
                    }
                  }
                }
              }
            }
            JOINT Neck
            {
              OFFSET 5.0226 -0.0266342 0
              CHANNELS 3 Zrotation Xrotation Yrotation
              JOINT Head
              {
                OFFSET 6.69364 2.86102e-005 0
                CHANNELS 3 Zrotation Xrotation Yrotation
                End Site
                {
                  OFFSET 0 0 0
                }
              }
            }
          }
        }
      }
    }
  }
}
MOTION
Frames:	15
Frame Time:	0.0416667
71.0277 95.8484 -2.45568 93.3958 -42.8134 89.3551 -173.211 13.0061 87.1874 -19.7472 12.3707 -2.23881 56.7704 0.509438 11.3582 41.4369 11.5537 -22.5921 178.036 9.51774 86.9936 -55.2695 4.38531 -5.18183 54.644 -0.0286577 0.199621 44.306 1.42426 6.23869 0.426351 7.52752 -89.5311 11.8148 1.06836 0.820888 0.144036 1.10343 0.773066 -22.3911 0.772274 1.10402 -2.37848 0.772251 1.104 79.3021 -51.6465 -116.258 13.6202 -13.7465 -2.39243 -11.4439 -10.2252 -58.1989 -11.1796 -0.924749 4.45785 -102.944 -41.2819 55.9056 -32.6673 6.14397 17.3413 3.59769 4.1233 -34.9371 12.4279 0.844619 2.84536 9.62558 -1.94149 1.71416 1.56044 -2.31487 -0.963311 
61.4702 93.7242 -7.577 92.5951 -43.3223 87.9604 -173.462 22.0309 87.2577 -22.7696 10.2563 -2.05289 57.1229 0.408604 7.96122 27.5133 0.046499 -11.85 177.098 0.405353 84.9676 -52.0535 -3.2777 -6.74339 50.9752 1.96483 1.72632 44.6668 1.73541 9.82331 0.831323 7.4413 -89.3883 11.9828 1.94135 1.00946 0.312956 1.98391 0.923015 -22.2271 1.54825 1.54629 -2.21446 1.54824 1.54628 79.0382 -51.0433 -116.883 9.9672 -9.76195 -8.34964 -15.7567 -10.5551 -63.6002 -12.1774 -1.1133 5.68522 -102.71 -41.1173 56.1906 -34.4927 6.1915 19.9359 2.10361 5.29098 -26.5433 11.6691 0.934103 3.93573 10.2464 -3.53912 0.351951 1.48799 -3.52393 0.139561 
50.7088 93.0707 -13.8876 91.6824 -45.1833 89.8225 -174.555 25.9658 90.7715 -15.0234 8.57585 -0.519315 57.8132 1.42861 7.9274 43.1639 15.5734 -2.28753 177.993 -4.95986 87.8764 -37.3081 -6.83168 -6.54359 56.788 0.466894 0.558434 59.0289 5.11698 15.8497 1.16632 7.44339 -89.7708 11.9915 2.4269 0.190152 0.322853 2.43292 0.083085 -22.2288 2.25751 0.911118 -2.21615 2.25752 0.911114 78.8308 -48.0786 -118.426 10.2426 -6.36932 -11.9664 -16.8497 -11.2139 -62.818 -11.6332 -1.13673 6.40986 -103.591 -42.7289 55.61 -34.184 4.44155 19.6184 1.50305 3.34289 -21.0506 11.7237 0.998353 4.41748 9.11437 -2.84779 3.05227 2.02236 -3.49 -0.938065 
39.6558 93.8527 -20.6225 92.5315 -43.4151 92.894 -173.872 23.2348 92.8563 -6.47941 5.79369 -0.224045 59.6883 5.69681 10.6103 47.1195 20.2347 0.0417856 177.009 -2.84977 92.1105 -31.5954 0.832396 -2.16183 69.0577 -3.52803 -1.90503 51.1871 2.93336 11.1043 0.952702 7.61968 -90.1852 11.6378 1.80823 -0.555818 -0.0320528 1.78199 -0.634887 -22.5772 1.89164 0.0135202 -2.56458 1.89164 0.0135175 80.3183 -47.4493 -116.455 11.6197 -9.13324 -12.6401 -13.7466 -11.479 -59.3488 -11.3117 -1.03881 5.62625 -104.926 -43.5484 53.9877 -33.063 4.55618 18.7528 1.78879 2.58898 -24.3875 12.1928 0.959979 3.8255 8.80673 -2.00048 4.92625 2.63897 -3.08171 -1.32757 
31.0255 95.6659 -25.4534 94.0365 -39.7811 91.9893 -172.906 19.4085 90.7887 -20.116 6.95489 -0.989859 54.0634 -0.22976 6.92573 45.8536 18.4632 -1.8587 177.614 1.96618 92.509 -31.5886 5.31417 -1.45078 68.9371 -2.74757 -1.4579 42.7774 1.38255 8.76818 0.475391 7.66558 -90.0133 11.5437 0.939626 -0.122768 -0.126978 0.933309 -0.164017 -22.6646 0.933063 0.16532 -2.65198 0.93307 0.165321 78.2809 -50.1639 -118.352 13.8815 -13.5492 -2.46478 -12.5051 -13.2295 -54.1854 -10.8362 -0.940466 4.83158 -105.235 -43.2699 53.3883 -31.3382 5.84188 16.0851 1.8783 2.81433 -28.9181 15.74 1.11513 3.20104 7.29743 -2.2994 3.93424 2.70314 -3.10387 -1.14818 
23.7703 97.0936 -30.2348 95.3431 -37.5335 91.0564 -171.928 12.6551 89.7772 -37.7691 9.20372 -1.37018 53.5056 -0.978776 7.35613 41.7603 14.7491 2.44461 177.616 6.4823 91.2562 -31.209 5.76756 -1.28481 64.6187 -0.794076 -0.388765 38.4629 0.812843 9.74342 0.16454 7.61082 -89.8506 11.6517 0.397422 0.256339 -0.0191713 0.408293 0.2386 -22.5544 0.302003 0.36393 -2.54179 0.302009 0.363932 78.5466 -52.2805 -117.094 19.0402 -16.4167 8.64916 -10.1623 -17.7269 -45.3817 -7.09216 -0.646809 4.05006 -104.622 -42.5611 53.9621 -28.6791 5.9197 13.2157 3.87316 3.40964 -38.0188 17.7196 1.23588 3.10699 5.94579 -2.53824 3.3076 2.35981 -3.15586 -0.785569 
16.7537 96.0933 -35.5974 94.104 -36.1003 90.9533 -171.837 4.34293 89.4521 -45.5903 15.9155 -0.689136 50.168 -5.03178 3.99283 43.4405 16.4437 1.29592 177.276 13.1098 91.4925 -32.0343 8.18187 0.577252 66.2012 -1.49337 -0.798969 32.5091 -0.149218 12.791 -0.280437 7.36986 -90.0029 12.1345 -0.558775 0.055958 0.463668 -0.555761 0.0804929 -22.0724 -0.549748 -0.114567 -2.05975 -0.54976 -0.114566 78.488 -52.0592 -117.268 23.6058 -14.3711 17.8223 -7.66892 -21.3255 -37.2345 -2.57806 -0.383835 4.80764 -103.346 -42.3304 55.7903 -25.7972 3.47977 11.1899 9.30595 4.84852 -50.767 17.0065 1.3311 3.94138 6.76813 -1.75596 3.58791 0.457101 -2.45113 -0.655889 
8.61229 93.8268 -41.9417 92.4763 -34.9239 90.4238 -173.063 -2.92447 93.8257 -40.876 27.1985 0.352183 47.5738 -7.73512 3.45105 51.9733 25.6496 0.632345 177.833 22.7413 91.9332 -35.4525 9.27027 0.967533 65.4259 -1.6926 -0.928423 30.3475 -0.454419 11.5382 -0.766907 7.28537 -90.0466 12.3044 -1.5462 0.0806583 0.634344 -1.54114 0.148643 -21.9078 -1.49894 -0.38787 -1.89513 -1.49895 -0.387876 78.4606 -53.1968 -116.85 23.7195 -9.47693 22.5462 -6.6269 -20.9581 -31.5114 -3.42845 -0.495772 7.15907 -102.881 -41.7146 56.2122 -21.0963 0.946158 8.27457 10.5811 3.17899 -58.199 16.4802 1.41096 4.65638 9.07874 -0.829758 2.2718 -0.906722 -1.29441 0.462719 
-1.24981 92.931 -50.1525 91.6767 -32.5481 89.5376 -174.481 -5.61802 90.4581 -33.1806 29.1727 1.52678 58.1225 2.47033 7.65525 56.7938 29.7011 -2.10576 178.256 26.8323 89.6872 -25.0281 9.04045 1.3749 57.5565 0.291167 0.356594 15.6599 -2.73982 11.1697 -1.12364 7.47661 -89.9338 11.9251 -2.20303 0.368575 0.255958 -2.18467 0.465219 -22.2941 -2.21192 -0.310906 -2.28142 -2.21189 -0.310898 78.1917 -54.6055 -116.674 22.436 -6.93929 22.8574 -5.57576 -17.2679 -30.7824 -2.86403 -0.402123 6.90395 -103.42 -40.6331 54.849 -17.0639 -0.549126 3.06096 8.99976 2.39713 -56.1115 16.7702 1.46792 4.85274 9.6986 -1.26141 -0.500992 -0.230024 -1.07331 1.63865 
-11.6103 93.7546 -58.709 92.4195 -35.8097 87.8394 -173.509 -3.16058 85.8923 -26.362 21.7763 -1.18981 63.0862 9.36663 14.5887 53.9815 25.1297 -7.27444 179.135 22.8698 86.6254 -5.87616 -1.83445 -0.288612 45.7383 4.05292 3.71568 38.8189 0.704989 3.48975 -0.876622 7.72126 -89.5976 11.4381 -1.5562 0.959301 -0.232297 -1.51247 1.02687 -22.7741 -1.77255 0.44714 -2.76145 -1.77255 0.447143 77.9312 -54.4843 -117.086 21.5656 -7.86702 19.3836 -6.69169 -16.1539 -34.4254 -2.02353 -0.312345 5.2384 -103.873 -40.3162 53.987 -16.9732 0.442531 2.26198 7.96467 2.4627 -52.6554 16.4953 1.50966 5.23857 8.65004 -1.2936 -0.736847 1.31883 -1.07734 0.710743 
-19.3407 96.0123 -65.6333 93.9277 -38.9439 90.2186 -173.786 0.265974 85.5494 -22.0573 18.2487 -1.33257 61.3494 6.12315 12.6127 48.3915 19.3993 -9.17011 -179.891 20.2813 87.0382 -20.06 -2.81202 -3.08351 54.7086 1.10606 0.957225 46.5071 1.30496 2.25193 -0.446658 7.70298 -89.8142 11.4696 -0.801803 0.452169 -0.201143 -0.78112 0.487015 -22.7382 -0.900633 0.190267 -2.72555 -0.900647 0.190268 77.9635 -54.5172 -117.028 19.0443 -10.2483 15.01 -6.26035 -14.2519 -39.3182 -3.80489 -0.41721 4.46186 -104.825 -41.4667 53.1048 -22.2164 4.10866 5.94502 5.88468 3.49822 -44.1235 18.727 1.54666 4.4063 7.46708 -0.824824 0.338478 0.679882 -0.847161 0.873829 
-26.5924 97.4268 -70.8808 94.9725 -39.3608 91.5909 -173.629 3.50956 86.6069 -18.1863 16.6376 -1.60028 59.2341 2.04958 8.84495 41.8244 13.1923 -9.88729 178.21 15.2558 86.2614 -39.4762 6.17303 -3.63086 58.4869 -1.00364 -0.50496 45.5282 1.38847 4.45321 -0.24235 7.543 -89.8758 11.7881 -0.423507 0.292783 0.11724 -0.410212 0.311136 -22.4186 -0.49192 0.151963 -2.40592 -0.491933 0.151957 78.2634 -54.0687 -116.783 17.3063 -11.6485 9.11988 -7.94143 -12.9225 -45.1426 -6.75093 -0.579645 3.73403 -104.132 -41.1926 54.029 -29.9493 7.39746 10.5306 3.16328 5.72445 -31.8283 13.1852 1.00346 3.53581 7.45452 -1.02944 0.113734 -0.8901 -1.00599 1.14393 
-34.3913 96.4922 -75.681 94.877 -40.0586 91.0209 -173.232 9.90539 86.3802 -19.5425 14.0336 -2.36975 62.1502 4.24149 8.69955 31.7654 3.74707 -7.88692 176.84 7.97282 85.4465 -50.9545 2.74347 -4.84598 56.276 -0.389252 -0.103529 45.9137 1.71442 7.46182 0.204749 7.35979 -89.7244 12.1526 0.53735 0.489214 0.481701 0.558347 0.46509 -22.053 0.365457 0.628091 -2.04033 0.365472 0.628086 79.6021 -52.5535 -115.471 16.0915 -11.8015 2.85469 -10.8818 -11.5408 -51.9998 -8.53547 -0.725733 4.12484 -103.175 -41.0049 55.414 -34.3143 8.42244 15.9953 2.88181 10.2806 -26.3773 6.35048 0.551287 4.0555 8.54363 -2.5209 0.0491159 -2.84522 -2.47448 0.789799 
-43.7076 94.3297 -80.8181 94.1656 -41.2124 89.6275 -172.954 19.4289 86.4259 -23.2863 13.5736 -3.02403 59.4151 2.57792 9.27149 34.5019 6.40047 -5.30121 177.353 -0.0643954 85.791 -51.0432 -11.0882 -6.86713 50.4248 2.93676 2.43607 48.3317 1.72945 4.81403 0.717179 7.31809 -89.4485 12.231 1.68673 0.912211 0.560852 1.72524 0.837074 -21.9777 1.33462 1.37699 -1.96509 1.33461 1.37698 79.2959 -51.7396 -116.23 12.8389 -10.2229 -3.49201 -13.8491 -12.5257 -55.8509 -6.20349 -0.634848 5.47754 -102.079 -40.5308 56.8935 -35.5789 6.11282 21.1059 2.30028 6.9078 -24.8688 8.62927 0.665999 3.47345 9.56721 -4.1121 -1.06336 -3.55393 -3.78596 0.621489 
-53.8943 93.4773 -87.2191 94.2202 -43.7541 91.3105 -174.165 23.3803 88.9009 -16.4265 10.0237 -1.34897 56.3356 0.0519235 8.28508 48.0378 20.8177 -1.62621 177.616 -5.07267 88.4801 -39.6649 -10.6015 -5.84451 58.2007 0.237324 0.348484 59.6738 4.24835 11.2337 1.13802 7.38807 -89.6892 12.1014 2.40907 0.350778 0.43274 2.42218 0.244346 -22.118 2.19223 1.05892 -2.10541 2.19221 1.05892 79.8207 -49.1996 -116.481 10.8804 -9.84513 -8.27937 -14.1616 -12.9506 -57.2668 -10.1094 -0.965631 5.91187 -102.455 -41.6448 56.8368 -35.6959 4.25274 22.1551 1.86604 3.13211 -23.7382 10.1991 0.78131 3.54738 7.74822 -3.8948 0.97118 -2.44282 -4.01875 -0.186922 
